<svg xmlns="http://www.w3.org/2000/svg" viewBox="0 0 901.85 757.51">
    <defs>
        <style>.cls-1{fill:none;}.cls-2,.cls-3{font-size:195px;font-family:Poppins-Bold,
            Poppins;font-weight:700;}.cls-3,.cls-5{fill:#4dcf61;}.cls-4{clip-path:url(#clip-path);}.cls-6{fill:#fff;}
        </style>
        <clipPath id="clip-path">
            <path class="cls-1"
                  d="M59.71,485.77,7.31,324.66,454.58,0,901.85,324.66l-52.34,161a1318.13,1318.13,0,0,0-789.8.15Z"/>
        </clipPath>
    </defs>
    <title>Black (small)</title>
    <g id="Layer_2" data-name="Layer 2">
        <g id="Layer_1-2" data-name="Layer 1">
            <g id="Logo">
                <text class="cls-2" transform="translate(112.45 643.34) rotate(-15.34)">t</text>
                <text class="cls-2" transform="matrix(0.98, -0.18, 0.18, 0.98, 187.75, 621.36)">a</text>
                <text class="cls-2" transform="translate(315.65 598.51) rotate(-3.61)">p</text>
                <text class="cls-3" transform="translate(445.52 590.83) rotate(2.23)">2</text>
                <text class="cls-2" transform="matrix(0.99, 0.14, -0.14, 0.99, 553.73, 594.38)">g</text>
                <text class="cls-2" transform="matrix(0.97, 0.25, -0.25, 0.97, 682.27, 612.96)">o</text>
                <g class="cls-4">
                    <path class="cls-5"
                          d="M59.71,485.77,7.31,324.66,454.58,0,901.85,324.66l-52.34,161a1318.13,1318.13,0,0,0-789.8.15Z"/>
                    <path class="cls-6"
                          d="M525,363.3a47.21,47.21,0,0,0-11-26.56l-22.24,23.65L525,363.3Zm40,3.55c-4.34-23.33-8.62-46.34-13.06-70.27l-27.07,28.7c9.8,11.62,14.76,24.84,16,39.45L565,366.85Zm14.76-5.14,83.63-65L566,288.19c4.58,24.59,9.07,48.73,13.68,73.52Zm-77.1-35.38c-18.24-12.53-43.3-11-60.23,3.29A50.47,50.47,0,0,0,483.34,418c20.38-3.5,38.66-21,40.38-39.11l-4.84-.43q-19.68-1.71-39.36-3.45c-4.58-.41-9.65,0-11.67-5.59-1.93-5.32,2-8.29,5-11.53,9.82-10.45,19.66-20.87,29.75-31.57Zm185,13.59C662.92,345.86,647,372.36,652.06,398c5.23,26.3,30.61,44.18,56.86,40.06,26.89-4.21,45.82-28.6,42.89-55.26-2.76-25.12-25.65-46.28-48.77-44.76,1,6.51,1.9,13,2.87,19.5,1.17,7.84,2.41,15.66,3.53,23.51.74,5.18-1.87,9.18-6.21,9.79-4.68.66-8-2-9-7.26-.25-1.32-.43-2.66-.63-4-2-13.13-4-26.27-6-39.72Zm79.57,46.78c.28,16.77-5.71,33.92-17.47,46.07-9.81,10.12-22.22,17.58-36.2,20.07a65.68,65.68,0,0,1-76.18-49.74A65.29,65.29,0,0,1,644,355.86a63.29,63.29,0,0,1,18.71-20.72c6.76-4.72,16.13-11,22.4-12.14l-3.27-22.85s-68.47,55.05-101.09,80.14a14.9,14.9,0,0,1-9,2.65c-9.41-.39-31.9-2.79-31.9-2.79-2,21-21,51-68,53-38-1-56.24-21.55-61.6-53.68-4.89-29.29,10.4-58.93,37.51-71.26a65.48,65.48,0,0,1,32.91-5.46c12.18,1.16,24.18,4.4,33.62,11.2,0,0,21.53-22.73,32.39-34.51a6.38,6.38,0,0,0,1-4.75c-1.69-10-3.69-20-5.44-30-1.25-7.13,2.28-11,9.41-10.42,9.71.78,19.41,1.65,29.11,2.54,5.56.51,8.66,3.88,8.13,8.64-.51,4.61-3.92,7-9.44,6.57-6.55-.53-13.09-1.14-20.39-1.78,1.1,6.12,2.32,11.64,3,17.21.45,3.65,1.92,4.86,5.64,5.18,35.39,2.93,109.24,9.45,111.3,9.63-1.21-8-2.19-15.25-3.51-22.43-.2-1.06-2-2.42-3.2-2.58-5.34-.71-10.74-1-16.1-1.53-5.62-.53-8.91-3.78-8.6-8.37s4-7.37,9.69-6.93c7.92.62,15.83,1.33,23.73,2.07,6.05.56,7.87,2.2,8.81,8.17,1.73,11.08,3.35,22.18,5,33.28,1.91,12.68,3.84,25.35,5.76,38.1,0-.21,9.37,0,10.22.13C727,324.33,743.5,333,753.4,346.22A69.47,69.47,0,0,1,767.21,386.7Z"/>
                    <path class="cls-6"
                          d="M36.88,453.51l-4.12-11.27c47.07-17.18,127.07-40.41,240.92-53.44,68.05-7.8,116.69-8.25,117.17-8.25l.09,12C389,392.56,198,394.69,36.88,453.51Z"/>
                    <path class="cls-6"
                          d="M21.22,408.86l-4.5-11.13c47.93-19.38,129-45.6,243.06-60.39,68.18-8.85,116.59-9.41,117.07-9.42l.12,12c-.48,0-48.32.57-115.83,9.34C198.93,357.34,106.81,374.24,21.22,408.86Z"/>
                    <path class="cls-6"
                          d="M5.23,362,0,351.15c81-39.25,202-58.77,289.34-68.23,94.36-10.23,170.75-11.25,171.51-11.26l.15,12c-.76,0-76.67,1-170.48,11.2C166.72,308.29,68.07,331.49,5.23,362Z"/>
                </g>
            </g>
        </g>
    </g>
</svg>
