<?xml version="1.0" encoding="UTF-8"?>
<svg viewBox="0 0 901.85 657.61" xmlns="http://www.w3.org/2000/svg">
    <defs>
        <clipPath id="a" transform="translate(7.31)">
            <path d="M52.4,485.77,0,324.66,447.27,0,894.54,324.66l-52.35,161a1318.09,1318.09,0,0,0-789.79.15Z" fill="none"/>
        </clipPath>
    </defs>
    <path transform="translate(7.31)" d="M168.07,596.35,175.66,624l-14.48,4Q142.74,633,130,626.71t-18.53-27.37l-10.58-38.55-14.1,3.87-7.43-27.08,14.11-3.87L86.4,508l32.16-8.82,7.06,25.76,21.07-5.78,7.42,27.08L133.05,552l10.73,39.11q1.71,6.21,4.91,8t9.23.1Z"/>
    <path transform="translate(7.31)" d="m235.28 505.45a34 34 0 0 1 15.72 12.84l-3.45-19.39 32.64-5.8 19 107.13-32.55 5.77-3.45-19.39a34 34 0 0 1-10.36 17.49q-7.83 7.14-20.12 9.32a44.12 44.12 0 0 1-24.89-2.4q-11.65-4.77-19.91-16.17t-11.24-28.11q-3-16.89 0.84-30.35a46.24 46.24 0 0 1 13.13-21.95 44.19 44.19 0 0 1 22.53-10.84q12.29-2.14 22.11 1.85zm-22.19 35q-5.21 8.06-3 20.34t9.84 18.06q7.67 5.76 18.22 3.89 10.37-1.85 15.73-10.13t3.24-20.18q-2.15-12.11-10-17.93t-18.23-4q-10.59 1.94-15.8 9.99z"/>
    <path transform="translate(7.31)" d="M405.07,488.76A46.15,46.15,0,0,1,423,507q6.92,12.18,8,29.3,1.07,16.92-4.27,30t-15.52,20.42a44.05,44.05,0,0,1-23.61,8.23q-12.45.78-21.76-4.29a32.81,32.81,0,0,1-14-14.56l4.5,71.43-33.28,2.09L313,489.19l33.28-2.1,1.23,19.66a32.88,32.88,0,0,1,12.08-16.2q8.58-6.19,21.05-7A44.08,44.08,0,0,1,405.07,488.76ZM355,521.62q-6.27,7.53-5.5,19.78.76,12.08,7.93,18.85t17.68,6.11q10.7-.68,16.78-8.09t5.29-19.87q-.78-12.45-7.74-19t-17.67-5.92Q361.25,514.09,355,521.62Z"/>
    <path transform="translate(7.31)" d="M510.57,496.66q.63-16-13.21-16.52-7.8-.3-11.61,5T481.09,502l-32.54-1.27q2.16-25.1,16.68-37.21t35.95-11.28q22.41.87,33.37,12.62t10.25,29.87q-.78,20.07-16.92,38.66a143.8,143.8,0,0,1-38.09,31l54.36,2.12-1,26.89-98.2-3.83,1-24.94Q509.56,522.78,510.57,496.66Z" fill="#58e86a"/>
    <path transform="translate(7.31)" d="m634.84 501.51a34.08 34.08 0 0 1 10.93 17.14l2.81-19.5 32.81 4.73-15.39 107.12a62.4 62.4 0 0 1-9.69 26.28 44.85 44.85 0 0 1-20.52 16.65q-13 5.42-30.76 2.87-24.32-3.51-37.23-17.09t-13-33.68l32.62 4.69a16.55 16.55 0 0 0 5.58 11.28q5 4.46 13.85 5.73 10.23 1.47 17.35-3.51t9-17.91l2.72-18.92a34 34 0 0 1-15.32 13.36q-9.67 4.32-22 2.54a44.06 44.06 0 0 1-22.88-10.09q-9.57-8.17-13.84-21.59t-1.88-30.25q2.44-17 10.32-28.56a46.18 46.18 0 0 1 19.35-16.71 44.06 44.06 0 0 1 24.8-3.23q12.3 1.77 20.37 8.65zm-32.06 26.32q-7.47 6-9.24 18.37t3.69 20.23q5.46 7.88 16.08 9.41 10.43 1.5 18.11-4.69t9.41-18.15q1.74-12.15-3.9-20.16t-16.07-9.5q-10.61-1.53-18.08 4.49z"/>
    <path transform="translate(7.31)" d="M789.35,535.74a49.32,49.32,0,0,1,14.57,23.82q3.9,14.12-.35,30.53T789.05,617a49.32,49.32,0,0,1-24.31,13.74,65.86,65.86,0,0,1-56.16-14.56,49.16,49.16,0,0,1-14.67-23.84q-3.88-14.1.36-30.53t14.52-26.86a49.2,49.2,0,0,1,24.4-13.71A61.87,61.87,0,0,1,763,522,61.23,61.23,0,0,1,789.35,535.74Zm-50.89,16.83q-8.07,5.05-11.34,17.7t1.33,20.9a21.36,21.36,0,0,0,13.86,10.64,21.06,21.06,0,0,0,17.19-2.59q7.95-5,11.22-17.64t-1.21-21a21,21,0,0,0-13.74-10.71A21.22,21.22,0,0,0,738.46,552.57Z"/>
    <g clip-path="url(#a)">
        <path transform="translate(7.31)" d="M52.4,485.77,0,324.66,447.27,0,894.54,324.66l-52.35,161a1318.09,1318.09,0,0,0-789.79.15Z" fill="#58e86a"/>
        <path transform="translate(7.31)" d="M517.69,363.3a47.21,47.21,0,0,0-11-26.56l-22.24,23.65,33.23,2.91Zm40,3.55c-4.34-23.33-8.62-46.34-13.06-70.27l-27.07,28.7c9.79,11.62,14.76,24.84,16,39.45l24.15,2.12Zm14.76-5.14,83.63-65-97.31-8.51c4.58,24.59,9.07,48.73,13.68,73.52ZM495.3,326.33c-18.23-12.53-43.29-11-60.22,3.29A50.47,50.47,0,0,0,476,418c20.37-3.5,38.65-21,40.38-39.11l-4.85-.43Q491.9,376.76,472.2,375c-4.57-.41-9.64,0-11.66-5.59-1.93-5.32,2-8.29,5-11.53,9.81-10.45,19.65-20.87,29.74-31.57Zm185,13.59c-24.72,5.94-40.69,32.44-35.58,58.12,5.22,26.3,30.61,44.18,56.86,40.06,26.89-4.21,45.82-28.6,42.89-55.26-2.76-25.12-25.65-46.28-48.78-44.76,1,6.51,1.9,13,2.88,19.5,1.17,7.84,2.41,15.66,3.53,23.51.74,5.18-1.87,9.18-6.21,9.79-4.68.66-8-2-9-7.26-.25-1.32-.42-2.66-.62-4-2-13.13-4-26.27-6-39.72ZM759.9,386.7c.27,16.77-5.71,33.92-17.47,46.07-9.81,10.12-22.22,17.58-36.2,20.07a65.66,65.66,0,0,1-76.18-49.74,65.24,65.24,0,0,1,6.65-47.24,63.18,63.18,0,0,1,18.71-20.72c6.75-4.72,16.13-11,22.4-12.14l-3.27-22.85s-68.47,55.05-101.09,80.14a14.9,14.9,0,0,1-9,2.65c-9.42-.39-31.9-2.79-31.9-2.79-2,21-21,51-68,53-38-1-56.24-21.55-61.6-53.68-4.89-29.29,10.4-58.93,37.51-71.26a65.48,65.48,0,0,1,32.91-5.46c12.18,1.16,24.18,4.4,33.62,11.2,0,0,21.53-22.73,32.38-34.51a6.29,6.29,0,0,0,1-4.75c-1.69-10-3.68-20-5.43-30-1.25-7.13,2.28-11,9.41-10.42,9.71.78,19.41,1.65,29.11,2.54,5.56.51,8.66,3.88,8.13,8.64-.51,4.61-3.92,7-9.44,6.57-6.55-.53-13.09-1.14-20.39-1.78,1.1,6.12,2.31,11.64,3,17.21.45,3.65,1.92,4.86,5.64,5.18,35.39,2.93,109.24,9.45,111.3,9.63-1.21-8-2.19-15.25-3.51-22.43-.2-1.06-2-2.42-3.2-2.58-5.34-.71-10.74-1-16.11-1.53-5.61-.53-8.9-3.78-8.59-8.37s4-7.37,9.69-6.93c7.92.62,15.83,1.33,23.73,2.07,6,.56,7.86,2.2,8.8,8.17,1.74,11.08,3.35,22.18,5,33.28,1.91,12.68,3.84,25.35,5.76,38.1,0-.21,9.37,0,10.22.13,16.17,2.18,32.65,10.88,42.55,24.07A69.54,69.54,0,0,1,759.9,386.7Z" fill="#fff"/>
        <path transform="translate(7.31)" d="m29.57 453.51-4.12-11.27c47.07-17.18 127.07-40.41 240.92-53.44 68.05-7.8 116.69-8.25 117.17-8.25l0.09 12c-1.91 0.01-192.96 2.14-354.06 60.96z" fill="#fff"/>
        <path transform="translate(7.31)" d="m13.91 408.86-4.5-11.13c47.93-19.38 129-45.6 243.06-60.39 68.18-8.85 116.59-9.41 117.07-9.42l0.12 12c-0.48 0-48.32 0.57-115.84 9.34-62.2 8.08-154.32 24.98-239.91 59.6z" fill="#fff"/>
        <path transform="translate(7.31)" d="M-2.08,362l-5.23-10.8c81-39.25,202-58.77,289.33-68.23,94.37-10.23,170.76-11.25,171.52-11.26l.14,12c-.75,0-76.66,1-170.48,11.2C159.41,308.29,60.76,331.49-2.08,362Z" fill="#fff"/>
    </g>
</svg>
